Coordinates
version=1
nRows=17
nColumns=63
inDegrees=yes

Units are S.I. units (second, meters, Newtons, ...)
If the header above contains a line with 'inDegrees', this indicates whether rotational values are in degrees (yes) or radians (no).

endheader
time	pelvis_tilt	pelvis_list	pelvis_rotation	pelvis_tx	pelvis_ty	pelvis_tz	hip_flexion_r	hip_adduction_r	hip_rotation_r	knee_angle_r	knee_angle_r_beta	ankle_angle_r	subtalar_angle_r	mtp_angle_r	hip_flexion_l	hip_adduction_l	hip_rotation_l	knee_angle_l	knee_angle_l_beta	ankle_angle_l	subtalar_angle_l	mtp_angle_l	L5_S1_Flex_Ext	L5_S1_Lat_Bending	L5_S1_axial_rotation	L4_L5_Flex_Ext	L4_L5_Lat_Bending	L4_L5_axial_rotation	L3_L4_Flex_Ext	L3_L4_Lat_Bending	L3_L4_axial_rotation	L2_L3_Flex_Ext	L2_L3_Lat_Bending	L2_L3_axial_rotation	L1_L2_Flex_Ext	L1_L2_Lat_Bending	L1_L2_axial_rotation	L1_T12_Flex_Ext	L1_T12_Lat_Bending	L1_T12_axial_rotation	Abs_r3	Abs_r2	Abs_r1	Abs_t1	Abs_t2	neck_flexion	neck_bending	neck_rotation	arm_flex_r	arm_add_r	arm_rot_r	elbow_flex_r	pro_sup_r	wrist_flex_r	wrist_dev_r	arm_flex_l	arm_add_l	arm_rot_l	elbow_flex_l	pro_sup_l	wrist_flex_l	wrist_dev_l
0.000000	-0.458391	-5.804342	103.230482	0.235495	0.867874	0.681239	0.137575	-1.758638	-0.682064	1.357470	0.023692	12.713252	-4.740229	0.000000	2.190665	3.075376	-5.065654	0.796839	0.013907	15.259469	9.853320	0.000000	-0.049688	-0.331816	0.258662	-0.092276	-0.441315	0.274828	-0.081633	-0.806778	0.274828	-0.056789	-0.806778	0.226329	-0.046140	-0.676639	0.210163	-0.028392	-0.513983	0.193997	-0.354917	-3.753570	1.438601	0.000000	0.000000	16.561160	1.326756	-2.353048	8.669218	-12.976630	38.043666	56.449734	35.369003	-1.391843	17.457006	8.664553	-15.541597	36.189210	59.551268	88.225780	-17.294671	-3.180897
0.017857	-0.500263	-5.428690	104.819444	0.234218	0.867061	0.677658	-0.817247	-1.497679	-0.774633	1.057580	0.018458	12.915568	-6.738325	0.000000	1.937142	2.947236	-2.591448	1.524861	0.026614	15.207828	8.321361	0.000000	-0.072598	-0.333724	-0.051963	-0.134823	-0.443853	-0.055211	-0.119272	-0.811416	-0.055211	-0.082973	-0.811416	-0.045468	-0.067415	-0.680530	-0.042220	-0.041483	-0.516938	-0.038972	-0.518564	-3.775151	-0.289002	0.000000	0.000000	16.659458	1.584830	-1.045766	8.682869	-11.858302	39.393883	49.819047	51.317222	-0.326093	15.873563	7.655184	-16.251895	37.633549	55.839124	89.261207	-15.422268	-0.653973
0.035714	-0.542593	-5.134913	106.142675	0.233154	0.866317	0.674543	-1.596592	-1.291398	-0.883944	0.812702	0.014184	13.150618	-8.334308	0.000000	1.742282	2.852681	-0.544354	2.153929	0.037593	15.183798	7.022265	0.000000	-0.090029	-0.336267	-0.329257	-0.167192	-0.447235	-0.349836	-0.147908	-0.817599	-0.349836	-0.102894	-0.817599	-0.288100	-0.083601	-0.685715	-0.267521	-0.051442	-0.520877	-0.246943	-0.643066	-3.803919	-1.831229	0.000000	0.000000	16.790502	1.785791	0.100425	8.826261	-10.940345	43.303038	43.757817	62.413659	0.442328	14.175906	6.594968	-16.881798	38.950459	52.305339	89.713277	-13.673472	1.356101
0.053571	-0.584951	-4.914460	107.215033	0.232291	0.865640	0.671847	-2.217014	-1.134982	-1.000978	0.618122	0.010788	13.409534	-9.566079	0.000000	1.596507	2.788556	1.107932	2.687727	0.046910	15.183409	5.933736	0.000000	-0.102543	-0.339236	-0.573912	-0.190433	-0.451183	-0.609781	-0.168468	-0.824817	-0.609781	-0.117196	-0.824817	-0.502173	-0.095221	-0.691769	-0.466303	-0.058593	-0.525476	-0.430434	-0.732454	-3.837501	-3.191926	0.000000	0.000000	16.947577	1.932709	1.097921	9.056998	-10.217786	49.294574	38.264581	69.228362	0.939517	12.393127	5.493455	-17.436942	40.154134	48.952766	89.640469	-12.049738	2.888909
0.071429	-0.626910	-4.758776	108.051375	0.231613	0.865031	0.669518	-2.695071	-1.023619	-1.116713	0.469125	0.008188	13.683447	-10.471542	0.000000	1.490233	2.751703	2.397714	3.129940	0.054628	15.202696	5.033477	0.000000	-0.110706	-0.342420	-0.786619	-0.205592	-0.455419	-0.835783	-0.181878	-0.832561	-0.835783	-0.126526	-0.832561	-0.688292	-0.102801	-0.698264	-0.639128	-0.063257	-0.530409	-0.589964	-0.790760	-3.873528	-4.374939	0.000000	0.000000	17.123973	2.028650	1.959120	9.332684	-9.685653	56.891931	33.337877	72.331377	1.191571	10.554317	4.360195	-17.922962	41.258773	45.784261	89.101266	-10.552515	3.984034
0.089286	-0.668040	-4.659310	108.666560	0.231106	0.864490	0.667507	-3.047319	-0.952497	-1.222128	0.360996	0.006301	13.963490	-11.088602	0.000000	1.413881	2.738967	3.357299	3.484253	0.060812	15.237689	4.299192	0.000000	-0.115081	-0.345612	-0.968070	-0.213717	-0.459663	-1.028574	-0.189067	-0.840320	-1.028574	-0.131526	-0.840320	-0.847061	-0.106864	-0.704771	-0.786556	-0.065757	-0.535352	-0.726052	-0.822013	-3.909627	-5.384112	0.000000	0.000000	17.312976	2.076682	2.696418	9.610922	-9.338972	65.618552	28.976245	72.292753	1.224587	8.688568	3.204739	-18.345493	42.278571	42.802678	88.154149	-9.183257	4.681062
0.107143	-0.707913	-4.607508	109.075445	0.230756	0.864018	0.665765	-3.290314	-0.916803	-1.308202	0.289020	0.005044	14.240796	-11.455160	0.000000	1.357871	2.747192	4.018991	3.754351	0.065526	15.284421	3.708585	0.000000	-0.116234	-0.348600	-1.118955	-0.215858	-0.463637	-1.188890	-0.190960	-0.847585	-1.188890	-0.132844	-0.847585	-0.979086	-0.107935	-0.710864	-0.909151	-0.066416	-0.539981	-0.839216	-0.830246	-3.943428	-6.223292	0.000000	0.000000	17.507875	2.079872	3.322212	9.849314	-9.172771	74.997878	25.178221	69.682537	1.064660	6.824973	2.036637	-18.710170	43.227724	40.010874	86.857599	-7.943414	5.019575
0.125000	-0.746100	-4.594818	109.292888	0.230549	0.863615	0.664241	-3.440612	-0.911727	-1.365913	0.248481	0.004337	14.506496	-11.609122	0.000000	1.312620	2.773220	4.415094	3.943918	0.068834	15.338924	3.239359	0.000000	-0.114728	-0.351175	-1.239967	-0.213061	-0.467062	-1.317465	-0.188486	-0.853846	-1.317465	-0.131122	-0.853846	-1.084971	-0.106536	-0.716116	-1.007473	-0.065555	-0.543970	-0.929975	-0.819488	-3.972559	-6.896324	0.000000	0.000000	17.701955	2.041289	3.848898	10.005463	-9.182077	84.553351	21.942345	65.070776	0.737889	4.992624	0.865439	-19.022629	44.120430	37.411702	85.270097	-6.834440	5.039157
0.142857	-0.782172	-4.612686	109.333748	0.230469	0.863281	0.662887	-3.514772	-0.932454	-1.386242	0.234665	0.004096	14.751723	-11.588390	0.000000	1.268550	2.813896	4.577914	4.056640	0.070802	15.397230	2.869218	0.000000	-0.111127	-0.353128	-1.331797	-0.206374	-0.469660	-1.415034	-0.182571	-0.858594	-1.415034	-0.127007	-0.858594	-1.165322	-0.103193	-0.720098	-1.082085	-0.063498	-0.546995	-0.998847	-0.793771	-3.994650	-7.407053	0.000000	0.000000	17.888506	1.963999	4.288873	10.036974	-9.361917	93.808414	19.267153	59.027519	0.270370	3.220613	-0.299305	-19.288504	44.970884	35.008018	83.450126	-5.857784	4.779392
0.160714	-0.815702	-4.652561	109.212881	0.230504	0.863017	0.661652	-3.529348	-0.974174	-1.360166	0.242857	0.004239	14.967608	-11.430867	0.000000	1.216078	2.866063	4.539756	4.096202	0.071492	15.455372	2.575865	0.000000	-0.105997	-0.354248	-1.395135	-0.196847	-0.471150	-1.482331	-0.174142	-0.861319	-1.482331	-0.121144	-0.861319	-1.220743	-0.098429	-0.722383	-1.133547	-0.060567	-0.548731	-1.046352	-0.757124	-4.007328	-7.759324	0.000000	0.000000	18.060814	1.851071	4.654535	9.901448	-9.707317	102.286507	17.151186	52.122811	-0.311801	1.538032	-1.448043	-19.513431	45.793283	32.802676	81.456165	-5.014900	4.279864
0.178571	-0.846259	-4.705888	108.945145	0.230638	0.862822	0.660488	-3.500897	-1.032074	-1.278664	0.268342	0.004683	15.145284	-11.174458	0.000000	1.145624	2.926566	4.332924	4.066288	0.070970	15.509381	2.337005	0.000000	-0.099901	-0.354328	-1.430675	-0.185525	-0.471256	-1.520092	-0.164127	-0.861512	-1.520092	-0.114176	-0.861512	-1.251840	-0.092768	-0.722545	-1.162423	-0.057083	-0.548853	-1.073006	-0.713580	-4.008224	-7.956984	0.000000	0.000000	18.212167	1.705571	4.958280	9.556489	-10.213305	109.511073	15.592979	44.926702	-0.982526	-0.026027	-2.571226	-19.703045	46.601824	30.798532	79.346696	-4.307240	3.580156
0.196429	-0.867884	-4.737643	108.510189	0.230829	0.862720	0.659262	-3.474367	-1.090397	-1.215470	0.331052	0.005778	15.207343	-10.780495	0.000000	1.004183	2.987537	4.150244	3.951026	0.068958	15.465340	1.863081	0.000000	-0.098106	-0.350417	-1.407927	-0.182193	-0.466054	-1.495922	-0.161179	-0.852003	-1.495922	-0.112126	-0.852003	-1.231936	-0.091101	-0.714570	-1.143941	-0.056058	-0.542795	-1.055945	-0.700763	-3.963984	-7.830467	0.000000	0.000000	18.334866	1.511663	5.226704	8.552385	-11.041267	111.698924	14.901635	41.090160	-1.465316	-1.141491	-3.459358	-19.854445	47.808085	28.943774	77.369049	-3.418791	2.921880
0.214286	-0.886992	-4.762809	107.958117	0.231078	0.862710	0.657876	-3.463529	-1.154581	-0.838323	0.356336	0.006219	15.175890	-10.670429	0.000000	0.803872	3.051734	3.805620	3.749488	0.065441	15.442229	1.483805	0.000000	-0.094008	-0.345107	-1.369404	-0.174583	-0.458992	-1.454992	-0.154446	-0.839092	-1.454992	-0.107442	-0.839092	-1.198229	-0.087296	-0.703741	-1.112641	-0.053716	-0.534570	-1.027053	-0.671492	-3.903914	-7.616216	0.000000	0.000000	18.381207	1.307490	5.523549	7.156018	-11.985274	111.476283	14.845767	38.021956	-2.176161	-2.303548	-4.429617	-19.980529	48.799205	27.360544	75.349355	-2.849421	2.060357
0.232143	-0.903309	-4.773067	107.300977	0.231399	0.862805	0.656342	-3.465536	-1.222815	-0.327095	0.373621	0.006521	15.097188	-10.610130	0.000000	0.547981	3.113104	3.291534	3.482830	0.060787	15.441417	1.229219	0.000000	-0.088857	-0.338673	-1.314293	-0.165017	-0.450435	-1.396437	-0.145984	-0.823449	-1.396437	-0.101555	-0.823449	-1.150007	-0.082513	-0.690621	-1.067863	-0.050773	-0.524604	-0.985720	-0.634699	-3.831134	-7.309705	0.000000	0.000000	18.354121	1.099990	5.833455	5.455529	-13.029409	109.056945	15.313433	35.703435	-3.088562	-3.390196	-5.440904	-20.097610	49.719222	26.019174	73.253196	-2.630244	0.957979
0.250000	-0.916596	-4.760201	106.570530	0.231775	0.862989	0.654669	-3.491584	-1.289432	0.236339	0.391367	0.006831	14.991242	-10.529202	0.000000	0.240776	3.167792	2.667908	3.175362	0.055421	15.456974	1.051739	0.000000	-0.084304	-0.331314	-1.242926	-0.156561	-0.440647	-1.320609	-0.138503	-0.805556	-1.320609	-0.096351	-0.805556	-1.087560	-0.078285	-0.675615	-1.009877	-0.048171	-0.513205	-0.932194	-0.602176	-3.747887	-6.912780	0.000000	0.000000	18.278866	0.864224	6.104833	3.517235	-14.142532	104.549345	16.183585	34.339097	-4.038240	-4.258252	-6.477225	-20.219764	50.533591	24.937186	71.247458	-2.790996	-0.305393
0.267857	-0.934442	-4.725256	105.782483	0.232215	0.863233	0.652873	-3.545211	-1.358296	0.814163	0.409375	0.007145	14.857036	-10.422580	0.000000	-0.113408	3.223034	2.017723	2.835409	0.049487	15.455007	0.871920	0.000000	-0.080622	-0.324105	-1.153919	-0.149723	-0.431060	-1.226039	-0.132454	-0.788029	-1.226039	-0.092143	-0.788029	-1.009679	-0.074866	-0.660915	-0.937559	-0.046067	-0.502039	-0.865439	-0.575875	-3.666342	-6.417751	0.000000	0.000000	18.158510	0.641489	6.351324	1.397900	-15.285950	97.972135	17.360932	34.292622	-4.849080	-4.761025	-7.470979	-20.342239	51.358758	24.021003	69.255949	-3.027070	-1.737854
0.285714	-0.951405	-4.664794	104.964606	0.232703	0.863501	0.650982	-3.632054	-1.420509	1.334527	0.430791	0.007519	14.708003	-10.228168	0.000000	-0.505943	3.272569	1.407793	2.483616	0.043347	15.430262	0.625251	0.000000	-0.079017	-0.316312	-1.047084	-0.146742	-0.420695	-1.112527	-0.129817	-0.769080	-1.112527	-0.090308	-0.769080	-0.916199	-0.073375	-0.645023	-0.850756	-0.045150	-0.489967	-0.785313	-0.564409	-3.578182	-5.823569	0.000000	0.000000	18.022842	0.381022	6.516974	-0.804012	-16.452822	89.667944	18.724883	35.659897	-5.403868	-5.032575	-8.281491	-20.515441	52.855023	23.247208	66.781552	-3.525287	-3.295804
